<?xml version="1.0" standalone="no"?><!DOCTYPE svg PUBLIC "-//W3C//DTD SVG 1.1//EN" "http://www.w3.org/Graphics/SVG/1.1/DTD/svg11.dtd"><svg t="1534407897584" class="icon" style="" viewBox="0 0 1084 1024" version="1.1" xmlns="http://www.w3.org/2000/svg" p-id="1744" xmlns:xlink="http://www.w3.org/1999/xlink" width="135.5" height="128"><defs><style type="text/css"></style></defs><path d="M546.272936 477.800337c187.468386 0 352.332122 131.890989 420.500223 195.027693-68.168102 63.173341-233.031838 195.088754-420.500223 195.088755S193.965238 736.001372 125.784924 672.82803c68.180314-63.136705 233.04405-195.027694 420.488012-195.027693m0-52.023668c-227.36541 0-418.87601 171.458285-476.492833 228.733169a25.792016 25.792016 0 0 0 0 36.758507c57.629035 57.274883 249.127423 228.733168 476.492833 228.733168s418.87601-171.458285 476.492833-228.733168a25.792016 25.792016 0 0 0 0-36.758507c-57.629035-57.274883-249.127423-228.733168-476.492833-228.733169zM164.558433 311.715388a160.418521 160.418521 0 0 1-16.327616-0.842637c-47.016695-4.884851-89.063054-30.774564-115.380191-71.037952C-0.378576 188.971284 0.012212 120.705485 33.839808 69.988515 70.62274 14.960664 135.884355-10.867988 200.181212 4.275051l10.648976 2.442426 7.327277 10.587915a28.906108 28.906108 0 0 1 3.248426 21.981832l-20.760618 80.03829 90.662842-23.422862 20.760619 11.613734 3.736911 12.212129c12.56628 53.269305-2.784365 107.894156-41.032752 146.154755a155.411548 155.411548 0 0 1-110.21446 45.832118z m-0.720516-259.703126a103.876366 103.876366 0 0 0-86.706113 46.833513c-22.43368 33.644414-22.726771 78.865926-0.708303 112.546977 17.951829 27.489501 45.355846 44.439936 77.16844 47.749423a103.595487 103.595487 0 0 0 84.33696-29.907503 102.58188 102.58188 0 0 0 30.078473-73.541439l-107.198065 27.794805-13.005917-11.18631a28.698502 28.698502 0 0 1-7.424974-27.53835l23.996833-92.690056z m-1.624213 77.327198l-0.244243 0.06106z" fill="" p-id="1745"></path><path d="M156.10764 613.56257a26.21944 26.21944 0 0 1-9.134672-1.660849c-60.047036-22.519165-102.435335-60.962946-125.968107-114.268887-49.935394-113.096523 4.555124-252.058334 6.875429-257.969005a26.011834 26.011834 0 0 1 48.31118 19.295164c-0.488485 1.221213-48.677545 124.893439-7.534883 217.803313 17.683162 39.921448 50.167424 68.974102 96.549089 86.364173a26.024046 26.024046 0 0 1-9.098036 50.436091zM909.86464 311.715388a155.411548 155.411548 0 0 1-110.177824-45.697785c-38.272811-38.260599-53.599032-92.897662-41.02054-146.142543l2.442426-10.551279 10.465794-7.327277a28.91832 28.91832 0 0 1 22.079529-3.346123l80.087139 20.760618-23.459499-90.58957 5.983943-11.454976A28.869472 28.869472 0 0 1 874.180801 4.275051c64.309069-15.118615 129.631745 10.648976 166.365827 65.737888 33.839808 50.71697 34.19396 118.982769 0.976971 169.846285-26.304925 40.300024-68.38792 66.165313-115.367979 71.037952a160.418521 160.418521 0 0 1-16.29098 0.818212zM806.379063 155.705445a102.423122 102.423122 0 0 0 30.054048 73.529227 103.925214 103.925214 0 0 0 84.398021 29.968563c31.812595-3.297275 59.228824-20.259921 77.16844-47.749423 21.981831-33.681051 21.737589-78.902563-0.708303-112.534764-19.991254-30.0052-52.365607-47.224301-87.243447-46.833514l27.782593 107.259126-11.271795 13.018129a28.637442 28.637442 0 0 1-27.489501 7.327277z" fill="" p-id="1746"></path><path d="M936.462656 613.56257a26.024046 26.024046 0 0 1-9.134672-50.387242c45.893179-17.194677 75.910591-44.500997 91.810783-83.445475 37.857599-92.702268-19.747012-218.059768-20.333194-219.305405a26.020382 26.020382 0 0 1 47.114392-22.103953c2.796577 5.947307 67.850586 146.899695 21.481134 260.851067-21.346801 52.512153-62.281856 90.369752-121.803771 112.717947a26.21944 26.21944 0 0 1-9.134672 1.673061zM234.130929 1023.987788a26.011834 26.011834 0 0 1-26.011834-26.011834c0-90.919297 85.961173-149.268848 89.624812-151.699061a26.011834 26.011834 0 0 1 28.918321 43.243147c-0.659455 0.439637-66.519464 45.636725-66.519465 108.455914a26.011834 26.011834 0 0 1-26.011834 26.011834zM858.414943 1023.987788a26.011834 26.011834 0 0 1-26.011834-26.011834c0-62.819189-65.860009-108.004065-66.519465-108.455914a26.011834 26.011834 0 0 1 28.918321-43.243147c3.663639 2.442426 89.624812 60.791976 89.624811 151.699061a26.011834 26.011834 0 0 1-26.011833 26.011834zM624.247377 737.918676c-32.533111 0-48.970636-21.908559-59.83943-36.404356-9.855188-13.14025-12.761674-15.619312-18.257132-15.619312s-8.328672 2.442426-18.159436 15.594888c-10.893219 14.446948-27.30632 36.42878-59.827218 36.42878s-48.921787-21.981831-59.83943-36.42878c-9.769703-13.115826-12.712826-15.594888-18.159435-15.594888a26.011834 26.011834 0 1 1 0-52.023668c32.496474 0 48.921787 21.981831 59.83943 36.42878 9.769703 13.115826 12.712826 15.594888 18.159435 15.594888s8.340884-2.442426 18.171648-15.594888c10.868794-14.508009 27.294107-36.42878 59.83943-36.42878s48.970636 21.908559 59.83943 36.404356c9.855188 13.14025 12.761674 15.619312 18.257132 15.619312s8.37752-2.442426 18.232708-15.6071c10.881007-14.508009 27.330744-36.416567 59.83943-36.416568a26.011834 26.011834 0 0 1 0 52.023668c-5.483246 0-8.389732 2.442426-18.257132 15.619312-10.868794 14.422524-27.281895 36.404355-59.83943 36.404356z" fill="" p-id="1747"></path></svg>