<?xml version="1.0" standalone="no"?><!DOCTYPE svg PUBLIC "-//W3C//DTD SVG 1.1//EN" "http://www.w3.org/Graphics/SVG/1.1/DTD/svg11.dtd"><svg t="1534407887402" class="icon" style="" viewBox="0 0 1044 1024" version="1.1" xmlns="http://www.w3.org/2000/svg" p-id="1615" xmlns:xlink="http://www.w3.org/1999/xlink" width="130.5" height="128"><defs><style type="text/css"></style></defs><path d="M648.698435 577.227425H401.106078a74.26841 74.26841 0 0 1-68.272087-103.424949l123.807799-289.206373a74.25679 74.25679 0 0 1 136.520933 0l123.807799 289.148269a74.26841 74.26841 0 0 1-68.272087 103.424949z m-123.796178-388.134079a24.310673 24.310673 0 0 0-22.741868 14.955945L378.340969 493.232422a24.752263 24.752263 0 0 0 22.753489 34.490477h247.603977a24.752263 24.752263 0 0 0 22.753489-34.490477L547.644125 204.049291a24.310673 24.310673 0 0 0-22.741868-14.979187z" fill="" p-id="1616"></path><path d="M524.902257 934.066742a46.169362 46.169362 0 0 1-44.461108-32.108217L356.900628 595.669605c-5.252593-15.711296-2.835471-31.469074 5.94984-43.636032a46.994438 46.994438 0 0 1 37.988332-19.418325h248.161775a46.843368 46.843368 0 0 1 44.461108 61.590138l-124.342355 308.636318a46.169362 46.169362 0 0 1-44.217071 31.225038zM404.801487 582.096533l120.10077 297.887095L645.421375 581.0158z" fill="" p-id="1617"></path><path d="M447.554339 1023.999965a24.752263 24.752263 0 0 1-19.755327-39.603621l55.233571-73.652509a24.752263 24.752263 0 1 1 39.592001 29.702716l-55.256813 73.652509a24.717401 24.717401 0 0 1-19.813432 9.900905z" fill="" p-id="1618"></path><path d="M591.210432 1023.999965a24.717401 24.717401 0 0 1-19.825052-9.900905l-55.233571-73.652509a24.752263 24.752263 0 1 1 39.592-29.702716l55.233571 73.652509a24.752263 24.752263 0 0 1-19.755327 39.603621zM591.18719 753.95626H458.617323a24.752263 24.752263 0 0 1 0-49.504526h132.569867a24.752263 24.752263 0 1 1 0 49.504526zM351.613173 552.475162a24.577951 24.577951 0 0 1-13.084999-3.753512c-8.576136-5.345559-209.662128-132.883629-209.662128-293.273646a24.752263 24.752263 0 1 1 49.504526 0c0 132.918491 184.526379 250.125687 186.408946 251.287765a24.763884 24.763884 0 0 1-13.166345 45.739393z" fill="" p-id="1619"></path><path d="M148.27275 280.165405a153.394307 153.394307 0 0 1-31.655007-3.311923c-56.581582-11.841576-102.262871-58.034179-113.627995-114.941143C-9.363142 100.124648 17.213584 38.813408 70.680796 5.752287L79.500969 0.30214l12.015887 2.161466A27.52963 27.52963 0 0 1 108.5413 15.060532l39.929003 67.830498 45.262942-76.778499L215.626796 0.011621l10.760843 5.81039c44.158967 27.297214 70.607864 74.372997 70.607864 125.864677a148.443854 148.443854 0 0 1-148.745995 148.478717zM78.733997 61.996866a98.834741 98.834741 0 0 0-27.204247 90.212121c7.553508 37.732675 37.790779 68.353433 75.244555 76.185839 30.597516 6.437913 60.42806-0.604281 84.053108-19.755327a98.67205 98.67205 0 0 0 36.651943-76.917948 97.509972 97.509972 0 0 0-29.249505-69.724685l-53.455592 90.839643-16.269093 1.220182a27.332077 27.332077 0 0 1-23.497219-13.480105z m50.573639 53.455592l-0.058104 0.092966zM698.19134 552.475162a24.752263 24.752263 0 0 1-13.39876-45.576702c1.812842-1.173699 181.516597-118.357653 181.516597-251.450456a24.752263 24.752263 0 1 1 49.504526 0c0 160.204085-195.926365 287.753775-204.270085 293.110955a24.670918 24.670918 0 0 1-13.352278 3.916203z" fill="" p-id="1620"></path><path d="M896.395378 280.165405a148.443854 148.443854 0 0 1-148.745994-148.478717c0-51.49168 26.448897-98.567463 70.724072-125.934401L827.170387 0.313761l11.969404 2.138224a27.518009 27.518009 0 0 1 17.094169 12.608547v0.081345l39.882519 67.737532 45.193217-76.697154 11.771851-3.672166a27.506388 27.506388 0 0 1 20.917406 3.300301c53.455592 33.061121 80.020697 94.36074 67.667806 156.136812-11.388365 56.941826-57.046413 103.111188-113.627995 114.964384a154.231003 154.231003 0 0 1-31.643386 3.253819z m-69.9571-218.18016a97.451868 97.451868 0 0 0-29.261127 69.724685 98.67205 98.67205 0 0 0 36.651943 76.917948c23.613427 19.19753 53.455592 26.239723 84.053108 19.755328 37.453777-7.844027 67.691048-38.464785 75.244556-76.209081a98.776637 98.776637 0 0 0-27.204248-90.200501l-53.455592 90.816402-16.269093 1.220182a27.332077 27.332077 0 0 1-23.497219-13.480105z m50.573638 53.455592l-0.058104 0.092966z" fill="" p-id="1621"></path></svg>