<?xml version="1.0" standalone="no"?><!DOCTYPE svg PUBLIC "-//W3C//DTD SVG 1.1//EN" "http://www.w3.org/Graphics/SVG/1.1/DTD/svg11.dtd"><svg t="1534406950095" class="icon" style="" viewBox="0 0 1024 1024" version="1.1" xmlns="http://www.w3.org/2000/svg" p-id="788" xmlns:xlink="http://www.w3.org/1999/xlink" width="128" height="128"><defs><style type="text/css"></style></defs><path d="M296.443203 819.725928a93.069752 93.069752 0 0 1-91.964548-105.881384c15.880026-115.726419 65.672343-333.015205 220.648022-487.990884C600.694038 50.344468 854.643581 9.626452 955.696972 0.27585a61.775048 61.775048 0 0 1 67.330148 67.301064c-9.336059 101.082476-50.054076 355.119271-225.563268 530.599379-154.961136 154.961136-372.249922 204.767996-487.990883 220.677107a95.062026 95.062026 0 0 1-13.029766 0.872528zM961.339326 61.978187c-94.407629 8.725289-331.226521 46.534876-492.426239 207.676425-142.149503 142.164046-188.248115 344.648924-203.081107 452.609836a31.047487 31.047487 0 0 0 35.293795 35.192c108.01908-14.81845 310.460332-60.931603 452.609836-203.081107C914.80445 393.21925 952.614036 156.400358 961.339326 61.978187z m-2.777551-30.85844z" p-id="789"></path><path d="M195.157138 829.527337l-27.819131 103.641893-75.866389-75.866389 103.641893-27.775504m43.946374-74.819355a31.483752 31.483752 0 0 0-8.158146 1.090661L23.647036 811.349651a30.974777 30.974777 0 0 0-13.887752 51.828218l151.761864 151.732779a30.538512 30.538512 0 0 0 21.813223 9.088843 30.902066 30.902066 0 0 0 30.044079-22.976595l55.536466-207.283787a31.003861 31.003861 0 0 0-29.782321-39.031127zM910.441805 393.044744c-1.090661 0-2.195864 0-3.301068-0.159964A309.878646 309.878646 0 0 1 631.799694 117.514653a30.979139 30.979139 0 1 1 61.615084-6.500341 247.856382 247.856382 0 0 0 220.240842 220.255384 30.974777 30.974777 0 0 1-3.199273 61.78959z" p-id="790"></path><path d="M830.321587 150.563057m-21.902475 21.902474a30.974777 30.974777 0 1 0 43.80495-43.804949 30.974777 30.974777 0 1 0-43.80495 43.804949Z" p-id="791"></path><path d="M589.394789 521.728218a108.339008 108.339008 0 0 1-76.666208-185.005216 30.974777 30.974777 0 1 1 43.800952 43.800952 46.534876 46.534876 0 1 0 65.715969 65.701428 30.989319 30.989319 0 1 1 43.800952 43.830036 108.135418 108.135418 0 0 1-76.651665 31.6728z" p-id="792"></path></svg>